<?xml version="1.0" encoding="UTF-8" standalone="no"?>
<!-- Generator: Adobe Illustrator 19.0.0, SVG Export Plug-In . SVG Version: 6.00 Build 0)  -->

<svg
   xmlns:dc="http://purl.org/dc/elements/1.1/"
   xmlns:cc="http://creativecommons.org/ns#"
   xmlns:rdf="http://www.w3.org/1999/02/22-rdf-syntax-ns#"
   xmlns:svg="http://www.w3.org/2000/svg"
   xmlns="http://www.w3.org/2000/svg"
   xmlns:sodipodi="http://sodipodi.sourceforge.net/DTD/sodipodi-0.dtd"
   xmlns:inkscape="http://www.inkscape.org/namespaces/inkscape"
   version="1.1"
   id="Layer_1"
   x="0px"
   y="0px"
   viewBox="0 0 1000 1000"
   xml:space="preserve"
   sodipodi:docname="convert.svg"
   width="1000"
   height="1000"
   inkscape:version="0.92.3 (2405546, 2018-03-11)"><metadata
   id="metadata947"><rdf:RDF><cc:Work
       rdf:about=""><dc:format>image/svg+xml</dc:format><dc:type
         rdf:resource="http://purl.org/dc/dcmitype/StillImage" /><dc:title></dc:title></cc:Work></rdf:RDF></metadata><defs
   id="defs945" /><sodipodi:namedview
   pagecolor="#ffffff"
   bordercolor="#666666"
   borderopacity="1"
   objecttolerance="10"
   gridtolerance="10"
   guidetolerance="10"
   inkscape:pageopacity="0"
   inkscape:pageshadow="2"
   inkscape:window-width="1920"
   inkscape:window-height="1137"
   id="namedview943"
   showgrid="false"
   inkscape:zoom="0.34545113"
   inkscape:cx="-384.70149"
   inkscape:cy="453.82926"
   inkscape:window-x="-8"
   inkscape:window-y="-8"
   inkscape:window-maximized="1"
   inkscape:current-layer="Layer_1" />
<g
   id="g910"
   transform="matrix(2.0734755,0,0,2.0734755,2,4.7317415)">
	<g
   id="XMLID_77_">
		<g
   id="g884">
			<path
   style="fill:#f4661e"
   d="M 240,10 C 367,10 470,113 470,240 470,367 367,470 240,470 113,470 10,367 10,240 10,113 113,10 240,10 Z"
   id="path882"
   inkscape:connector-curvature="0" />
		</g>
		<g
   id="g890">
			<g
   id="g888">
				<path
   style="fill:#231f20"
   d="M 240,480 C 107.664,480 0,372.336 0,240 0,107.664 107.664,0 240,0 372.336,0 480,107.664 480,240 480,372.336 372.336,480 240,480 Z M 240,20 C 118.691,20 20,118.691 20,240 20,361.309 118.691,460 240,460 361.309,460 460,361.309 460,240 460,118.691 361.309,20 240,20 Z"
   id="path886"
   inkscape:connector-curvature="0" />
			</g>
		</g>
	</g>
	<g
   id="XMLID_78_">
		<g
   id="g895">
			<path
   style="fill:#e7eced"
   d="m 420,215 v 50 c 0,5.5 -4.5,10 -10,10 h -34.6 c -3.3,12.8 -8.3,24.9 -14.9,36 l 24.5,24.5 c 3.9,3.9 3.9,10.2 0,14.1 L 349.6,385 c -3.9,3.9 -10.2,3.9 -14.1,0 L 311,360.5 c -11.1,6.6 -23.2,11.6 -36,14.9 V 410 c 0,5.5 -4.5,10 -10,10 h -50 c -5.5,0 -10,-4.5 -10,-10 v -34.6 c -12.8,-3.3 -24.9,-8.3 -36,-14.9 L 144.5,385 c -3.9,3.9 -10.2,3.9 -14.1,0 L 95,349.6 c -3.9,-3.9 -3.9,-10.2 0,-14.1 L 119.5,311 c -6.6,-11.1 -11.6,-23.2 -14.9,-36 H 70 c -5.5,0 -10,-4.5 -10,-10 v -50 c 0,-5.5 4.5,-10 10,-10 h 34.6 c 3.3,-12.8 8.3,-24.9 14.9,-36 L 95,144.5 c -3.9,-3.9 -3.9,-10.2 0,-14.1 L 130.4,95 c 3.9,-3.9 10.2,-3.9 14.1,0 l 24.5,24.5 c 11.1,-6.6 23.2,-11.6 36,-14.9 V 70 c 0,-5.5 4.5,-10 10,-10 h 50 c 5.5,0 10,4.5 10,10 v 34.6 c 12.8,3.3 24.9,8.3 36,14.9 L 335.5,95 c 3.9,-3.9 10.2,-3.9 14.1,0 l 35.4,35.4 c 3.9,3.9 3.9,10.2 0,14.1 L 360.5,169 c 6.6,11.1 11.6,23.2 14.9,36 H 410 c 5.5,0 10,4.5 10,10 z"
   id="path893"
   inkscape:connector-curvature="0" />
		</g>
		<g
   id="g901">
			<g
   id="g899">
				<path
   style="fill:#231f20"
   d="m 265,430 h -50 c -11.028,0 -20,-8.972 -20,-20 v -27.057 c -8.439,-2.644 -16.56,-6 -24.271,-10.03 l -19.158,19.158 c -3.775,3.775 -8.79,5.854 -14.121,5.854 -5.332,0 -10.347,-2.079 -14.122,-5.854 L 87.929,356.672 c -3.774,-3.774 -5.854,-8.789 -5.854,-14.121 0,-5.331 2.078,-10.346 5.854,-14.121 l 19.158,-19.158 c -4.03,-7.711 -7.387,-15.831 -10.03,-24.271 H 70 c -11.028,0 -20,-8.972 -20,-20 v -50 c 0,-11.028 8.972,-20 20,-20 h 27.057 c 2.644,-8.439 6,-16.56 10.03,-24.271 L 87.929,151.572 c -3.775,-3.775 -5.854,-8.79 -5.854,-14.121 0,-5.332 2.079,-10.347 5.854,-14.122 L 123.328,87.93 c 3.774,-3.774 8.789,-5.854 14.121,-5.854 5.331,0 10.346,2.078 14.121,5.854 l 19.158,19.158 c 7.711,-4.03 15.831,-7.387 24.271,-10.03 V 70 c 0,-11.028 8.972,-20 20,-20 h 50 c 11.028,0 20,8.972 20,20 v 27.057 c 8.439,2.644 16.56,6 24.271,10.03 l 19.158,-19.158 c 3.775,-3.775 8.79,-5.854 14.121,-5.854 5.332,0 10.347,2.079 14.122,5.854 l 35.399,35.399 c 3.774,3.774 5.854,8.789 5.854,14.121 0,5.331 -2.078,10.346 -5.854,14.121 l -19.158,19.158 c 4.03,7.711 7.387,15.831 10.03,24.271 H 410 c 11.028,0 20,8.972 20,20 v 50 c 0,11.028 -8.972,20 -20,20 h -27.057 c -2.644,8.439 -6,16.56 -10.03,24.271 l 19.158,19.158 c 3.775,3.775 5.854,8.79 5.854,14.121 0,5.332 -2.079,10.347 -5.854,14.122 l -35.399,35.399 c -3.774,3.774 -8.789,5.854 -14.121,5.854 -5.331,0 -10.346,-2.078 -14.121,-5.854 l -19.158,-19.158 c -7.711,4.03 -15.831,7.387 -24.271,10.03 V 410 C 285,421.028 276.028,430 265,430 Z m -95.997,-79.5 c 1.754,0 3.52,0.46 5.107,1.404 10.254,6.097 21.486,10.744 33.387,13.813 4.417,1.14 7.503,5.122 7.503,9.684 V 410 h 50 v -34.6 c 0,-4.562 3.086,-8.544 7.503,-9.684 11.9,-3.068 23.133,-7.716 33.387,-13.813 3.929,-2.336 8.946,-1.711 12.182,1.524 l 24.5,24.5 35.357,-35.4 -24.5,-24.457 c -3.234,-3.234 -3.861,-8.251 -1.524,-12.182 6.097,-10.254 10.744,-21.486 13.813,-33.387 1.14,-4.417 5.122,-7.503 9.684,-7.503 H 410 v -50 h -34.6 c -4.562,0 -8.544,-3.086 -9.684,-7.503 -3.068,-11.9 -7.716,-23.133 -13.813,-33.387 -2.337,-3.931 -1.71,-8.947 1.524,-12.182 l 24.5,-24.5 -35.4,-35.357 -24.457,24.5 c -3.235,3.233 -8.253,3.861 -12.182,1.524 -10.254,-6.097 -21.486,-10.744 -33.387,-13.813 -4.417,-1.14 -7.503,-5.122 -7.503,-9.684 V 70 h -50 v 34.6 c 0,4.562 -3.086,8.544 -7.503,9.684 -11.9,3.068 -23.133,7.716 -33.387,13.813 -3.929,2.337 -8.946,1.711 -12.182,-1.524 l -24.5,-24.5 -35.357,35.4 24.5,24.457 c 3.234,3.234 3.861,8.251 1.524,12.182 -6.097,10.254 -10.744,21.486 -13.813,33.387 -1.14,4.417 -5.122,7.503 -9.684,7.503 H 70 v 50 h 34.6 c 4.562,0 8.544,3.086 9.684,7.503 3.068,11.9 7.716,23.133 13.813,33.387 2.337,3.931 1.71,8.947 -1.524,12.182 l -24.5,24.5 35.4,35.357 24.457,-24.5 c 1.926,-1.929 4.487,-2.931 7.073,-2.931 z"
   id="path897"
   inkscape:connector-curvature="0" />
			</g>
		</g>
	</g>
	<path
   style="fill:#231f20"
   d="m 331.585,292.475 -40,-35 -13.17,15.051 L 298.386,290 H 240 c -27.57,0 -50,-22.43 -50,-50 h -20 c 0,38.598 31.402,70 70,70 h 58.386 l -19.971,17.475 13.17,15.051 40,-35 c 2.17,-1.898 3.415,-4.642 3.415,-7.525 0,-2.883 -1.245,-5.628 -3.415,-7.526 z"
   id="path904"
   inkscape:connector-curvature="0" />
	<path
   style="fill:#231f20"
   d="m 240,170 h -58.386 l 19.971,-17.475 -13.17,-15.051 -40,35 c -2.17,1.898 -3.415,4.642 -3.415,7.525 0,2.883 1.245,5.627 3.415,7.525 l 40,35 13.17,-15.051 L 181.614,190 H 240 c 27.57,0 50,22.43 50,50 h 20 c 0,-38.598 -31.402,-70 -70,-70 z"
   id="path906"
   inkscape:connector-curvature="0" />
	<circle
   style="fill:#afb6bb"
   cx="240"
   cy="240"
   r="30"
   id="circle908" />
</g>
<g
   id="g912"
   transform="translate(0,520)">
</g>
<g
   id="g914"
   transform="translate(0,520)">
</g>
<g
   id="g916"
   transform="translate(0,520)">
</g>
<g
   id="g918"
   transform="translate(0,520)">
</g>
<g
   id="g920"
   transform="translate(0,520)">
</g>
<g
   id="g922"
   transform="translate(0,520)">
</g>
<g
   id="g924"
   transform="translate(0,520)">
</g>
<g
   id="g926"
   transform="translate(0,520)">
</g>
<g
   id="g928"
   transform="translate(0,520)">
</g>
<g
   id="g930"
   transform="translate(0,520)">
</g>
<g
   id="g932"
   transform="translate(0,520)">
</g>
<g
   id="g934"
   transform="translate(0,520)">
</g>
<g
   id="g936"
   transform="translate(0,520)">
</g>
<g
   id="g938"
   transform="translate(0,520)">
</g>
<g
   id="g940"
   transform="translate(0,520)">
</g>
</svg>